<svg xmlns="http://www.w3.org/2000/svg" width="122.385" height="122.387" viewBox="0 0 122.385 122.387"><defs><style>.a{fill:#fff;fill-rule:evenodd;}</style></defs><path class="a" d="M3667.63,1140.477a24.667,24.667,0,0,1-.5,31.113,19.388,19.388,0,0,0,.5-31.113m-17.26-24.252a4.959,4.959,0,1,1-4.957,4.959A4.959,4.959,0,0,1,3650.369,1116.226Zm15.1,0a4.959,4.959,0,1,1-4.958,4.959A4.959,4.959,0,0,1,3665.47,1116.226Zm-30.2,0a4.959,4.959,0,1,1-4.959,4.959A4.96,4.96,0,0,1,3635.269,1116.226Zm15.1-27a61.193,61.193,0,1,1-35.089,111.331,14.911,14.911,0,0,1,5.028-3.569c10.424,6.74,18.092,8.853,30.061,8.853,11.243,0,18.217-1.764,28.285-7.75l.1-.06q.329-.2.653-.4l.246-.152c.212-.132.423-.265.635-.4l.4-.264.25-.165a55.329,55.329,0,0,0,9.962-8.438l.1-.108c.2-.216.4-.433.594-.653l.284-.316.245-.28c.163-.185.322-.371.483-.558l.059-.072a55.412,55.412,0,1,0-92.854-13.058,41.064,41.064,0,0,0-1.533,9.382,61.2,61.2,0,0,1,52.085-93.326Zm-42.211,109.01a21.955,21.955,0,0,1,13.332-8.987,48.258,48.258,0,0,0,9.244,5.409l.044-5.458.1-12.343a3,3,0,0,0-.959-2.43c-4.176-3.6-7.01-7.247-6.61-13.057l1.922-22.759c.08-.968,1.766-.946,1.8.031l.638,17.412a1.933,1.933,0,0,0,3.856.049l1.407-17.311a1.114,1.114,0,0,1,2.185,0l1.407,17.311a1.934,1.934,0,0,0,3.857-.049l.637-17.412c.035-.978,1.721-1,1.8-.031l1.923,22.759c.4,5.81-2.436,9.461-6.61,13.057a3,3,0,0,0-.96,2.43l.164,20.179a48.775,48.775,0,0,0,24.585.384l.172-22.5a14.915,14.915,0,0,0-2.472-3.345c-7.913-8.328-9.4-23.264-.589-31.08,3.9-3.458,8.533-3.458,12.429,0,8.807,7.816,7.323,22.751-.589,31.08a14.838,14.838,0,0,0-2.472,3.345l.156,20.359a48.385,48.385,0,1,0-61.183-22.624A34.089,34.089,0,0,0,3608.158,1198.235Z" transform="translate(-3589.177 -1089.225)"/></svg>